<?xml version="1.0" encoding="UTF-8"?>
<svg version="1.1" xmlns="http://www.w3.org/2000/svg" width="524" height="575">
<path d="M0 0 C10.02254033 10.63994528 14.75 23.84449769 14.75 38.3125 C13.54367824 55.31409731 6.57411238 69.69872059 -5.90234375 81.40625 C-18.11314904 91.32118009 -32.09144707 98.42589852 -48.25 97.3125 C-54.50092714 96.54806773 -59.38832059 95.42622873 -64.25 91.3125 C-64.58 90.3225 -64.91 89.3325 -65.25 88.3125 C-64.48816406 88.09335938 -63.72632813 87.87421875 -62.94140625 87.6484375 C-49.41808475 83.49520768 -41.8104245 77.42686267 -34.93359375 64.91796875 C-33.90147618 62.74328561 -33.03574643 60.58702913 -32.25 58.3125 C-32.02570313 57.66539063 -31.80140625 57.01828125 -31.5703125 56.3515625 C-28.39054185 44.98279348 -28.82678012 30.85764976 -34.25 20.3125 C-37.4853096 15.52086849 -40.56849404 11.98353116 -46.25 10.3125 C-46.58 9.6525 -46.91 8.9925 -47.25 8.3125 C-60.67678213 5.20630413 -73.30915028 7.32556732 -85.25 13.875 C-115.65252672 33.24868075 -131.04401541 68.97980921 -143.25 101.3125 C-143.92567017 103.06240234 -143.92567017 103.06240234 -144.61499023 104.84765625 C-148.63136134 115.30683767 -152.17465764 125.90507499 -155.62915039 136.56152344 C-156.57306339 139.47004948 -157.52549611 142.37569675 -158.47851562 145.28125 C-159.08644581 147.14827206 -159.69388603 149.01545375 -160.30078125 150.8828125 C-160.58303055 151.74222443 -160.86527985 152.60163635 -161.15608215 153.48709106 C-162.53110954 157.75054395 -163.66594026 161.85232529 -164.25 166.3125 C-164.91 166.3125 -165.57 166.3125 -166.25 166.3125 C-166.58 168.9525 -166.91 171.5925 -167.25 174.3125 C-166.26 173.9825 -165.27 173.6525 -164.25 173.3125 C-163.59 173.6425 -162.93 173.9725 -162.25 174.3125 C-140.35841051 177.00736132 -117.03415968 176.09155998 -95.19824219 173.5 C-92.54376884 173.24453189 -89.91383839 173.24441467 -87.25 173.3125 C-89.43930379 178.9153893 -91.73437913 184.46876351 -94.08984375 190.00341797 C-98.06583784 199.35263049 -101.77395366 208.7665394 -105.25 218.3125 C-103.95681744 216.7095551 -102.66550844 215.10509858 -101.375 213.5 C-100.65570313 212.60667969 -99.93640625 211.71335938 -99.1953125 210.79296875 C-97.17059294 208.27679047 -97.17059294 208.27679047 -95.25 205.3125 C-94.59 205.3125 -93.93 205.3125 -93.25 205.3125 C-92.98832031 204.72726563 -92.72664063 204.14203125 -92.45703125 203.5390625 C-84.58845396 189.02421119 -64.09183166 178.53971449 -49.1875 173.875 C-31.70757942 169.67327091 -12.49429874 171.22213512 3.125 180.49609375 C17.98528711 190.7788817 27.06385402 205.28023559 30.37353516 223.0703125 C36.58153177 260.0445284 22.34533455 299.08368723 1.45556641 329.17724609 C-19.62788844 358.57205115 -49.97436557 383.3041762 -86.44116211 389.48583984 C-105.00792785 392.19180972 -123.33893125 390.83536233 -140.24609375 382.265625 C-142.18118047 381.16932548 -142.18118047 381.16932548 -144.25 381.3125 C-167.7507439 441.7118022 -167.7507439 441.7118022 -168.25 503.3125 C-165.34952032 508.25405798 -161.47448787 510.35424225 -156.25 512.3125 C-148.62519712 514.13068659 -140.8597585 514.82732326 -133.0625 515.4375 C-132.01513672 515.52386719 -130.96777344 515.61023438 -129.88867188 515.69921875 C-127.3427988 515.90846859 -124.7966389 516.11282656 -122.25 516.3125 C-122.38645047 517.91584009 -122.52968327 519.51860395 -122.67578125 521.12109375 C-122.79433472 522.45998657 -122.79433472 522.45998657 -122.9152832 523.82592773 C-123.34617929 527.02700481 -124.03120061 528.94067996 -126.25 531.3125 C-130.84831484 532.4383411 -134.99368603 532.25787909 -139.6875 531.875 C-153.13386173 530.78549992 -166.55596021 531.32754304 -180 532.125 C-180.76166473 532.17017761 -181.52332947 532.21535522 -182.30807495 532.26190186 C-206.21193267 533.70542776 -229.33436571 536.84409469 -252.81079102 541.53173828 C-253.69025391 541.70624512 -254.5697168 541.88075195 -255.47583008 542.06054688 C-257.11908023 542.38784882 -258.76150146 542.71935632 -260.40283203 543.05615234 C-265.99569352 544.17245379 -271.56829875 544.83229857 -277.25 545.3125 C-278.22674523 542.21501342 -278.30539128 541.46328738 -277.125 538.25 C-273.72880939 532.92930137 -268.36648471 531.51569292 -262.625 529.5 C-242.26443703 522.03268176 -232.38384465 510.53851123 -223.30734253 491.24147034 C-219.85764233 483.72450521 -217.02621567 476.04474736 -214.43359375 468.1953125 C-214.08791855 467.1521991 -213.74224335 466.10908569 -213.38609314 465.03436279 C-209.75101202 453.95563389 -206.50298693 442.77575182 -203.3125 431.5625 C-202.66578886 429.30377549 -202.01872418 427.04515218 -201.37133789 424.78662109 C-199.32264511 417.63092138 -197.28558587 410.47193729 -195.25 403.3125 C-194.58693656 400.98274099 -193.92385081 398.65298833 -193.26074219 396.32324219 C-186.44109659 372.35236631 -179.67275271 348.36702347 -172.9140625 324.37890625 C-171.28138213 318.58449009 -169.64862274 312.79009619 -168.01577377 306.99572754 C-167.54811914 305.33614832 -167.08049053 303.67656177 -166.61288834 302.01696777 C-157.24186072 268.75824049 -147.77425225 235.52765778 -138.25 202.3125 C-142.54165198 202.28314225 -146.83327764 202.26558198 -151.125 202.25 C-152.32898438 202.24162109 -153.53296875 202.23324219 -154.7734375 202.22460938 C-161.66719146 202.20587635 -168.40920263 202.43641174 -175.25 203.3125 C-178.961908 215.64475933 -182.67000684 227.97816146 -186.375 240.3125 C-186.64954262 241.22645161 -186.92408524 242.14040321 -187.20694733 243.08205032 C-193.92480709 265.44875616 -200.62001899 287.82026323 -207.125 310.25 C-239.28060678 420.95694248 -239.28060678 420.95694248 -264.25 462.3125 C-264.765625 463.18261719 -265.28125 464.05273438 -265.8125 464.94921875 C-274.76307804 479.5610374 -285.28144057 493.07573756 -297.25 505.3125 C-298.47589844 506.63121094 -298.47589844 506.63121094 -299.7265625 507.9765625 C-306.21928572 514.80766869 -313.43862513 520.11589991 -321.25 525.3125 C-322.53197266 526.17875 -322.53197266 526.17875 -323.83984375 527.0625 C-342.31121948 538.86451045 -365.23692521 543.71255992 -386.79077148 539.18139648 C-401.06427263 535.69446341 -413.67524701 527.91578921 -421.75 515.375 C-428.29069766 503.1631772 -429.39634035 488.81665522 -425.6875 475.5 C-420.40553664 460.63982845 -412.0126839 450.78738088 -398.25 443.3125 C-387.42961407 438.37923865 -377.81917841 437.2262855 -366.25 440.3125 C-362.75 442.1875 -362.75 442.1875 -360.25 444.3125 C-359.46625 444.951875 -358.6825 445.59125 -357.875 446.25 C-355.85628212 448.81221885 -356.11399594 450.13732828 -356.25 453.3125 C-356.95125 453.33828125 -357.6525 453.3640625 -358.375 453.390625 C-366.65023909 453.88534038 -372.77498461 455.30924129 -378.5 461.5625 C-387.03282198 472.37384121 -387.26656694 484.03065131 -386.25 497.3125 C-384.85463261 504.03418403 -381.47171682 509.81967271 -376.25 514.3125 C-368.44282038 519.34345268 -360.42352577 520.29427364 -351.3515625 518.8515625 C-334.34600162 515.13569444 -322.68936032 503.41158084 -313.25 489.3125 C-302.03535474 471.62868555 -294.99061856 452.03630589 -288.25 432.3125 C-287.96564087 431.48381409 -287.68128174 430.65512817 -287.38830566 429.80133057 C-282.1433166 414.46604929 -277.43215203 399.02518065 -273 383.4375 C-272.34549998 381.15018104 -271.69054338 378.86299267 -271.03515625 376.57592773 C-269.71907519 371.97999781 -268.40595152 367.38324064 -267.09570312 362.78564453 C-265.44979229 357.01037877 -263.79667793 351.23720804 -262.140625 345.46484375 C-257.97579081 330.93798052 -253.83646298 316.40408797 -249.734375 301.859375 C-243.03454201 278.10979458 -236.27293524 254.38028079 -229.375 230.6875 C-229.02207886 229.47494537 -228.66915771 228.26239075 -228.30554199 227.01309204 C-227.31149053 223.59957389 -226.31627196 220.1863994 -225.3203125 216.7734375 C-225.02313324 215.75419693 -224.72595398 214.73495636 -224.41976929 213.68482971 C-224.01113144 212.28695473 -224.01113144 212.28695473 -223.59423828 210.86083984 C-223.35746368 210.05029144 -223.12068909 209.23974304 -222.8767395 208.40463257 C-222.36539191 206.69769222 -221.81348218 205.00294655 -221.25 203.3125 C-236.8895559 195.49272205 -266.9512329 202.19938919 -282.84863281 207.42871094 C-296.91373663 212.60517249 -308.70899874 220.77149874 -319.25 231.3125 C-321.375 230.9375 -321.375 230.9375 -323.25 230.3125 C-317.6448247 210.75318201 -302.01094865 193.90353824 -284.45703125 184.15234375 C-260.57260338 171.45503587 -236.88787945 169.69492938 -210.25 170.3125 C-209.91935547 168.54132813 -209.91935547 168.54132813 -209.58203125 166.734375 C-208.03055345 159.79262777 -205.45037999 153.19997058 -202.9375 146.5625 C-202.54375687 145.51737747 -202.54375687 145.51737747 -202.14205933 144.45114136 C-179.73438792 85.17415767 -146.26912673 18.05973363 -85.375 -9.5625 C-76.96621493 -13.18990066 -68.24491402 -15.13142737 -59.25 -16.6875 C-58.29996094 -16.8628125 -57.34992188 -17.038125 -56.37109375 -17.21875 C-36.07011792 -20.01450254 -15.0453128 -13.91908017 0 0 Z M-90.22265625 222.7578125 C-98.35943209 233.01109072 -104.87481525 243.37394474 -110.25 255.3125 C-110.71027588 256.3132959 -111.17055176 257.3140918 -111.64477539 258.34521484 C-115.67308135 267.36538264 -118.56138473 276.43359513 -121.1875 285.9375 C-121.61753039 287.46875519 -122.04787383 288.9999225 -122.47851562 290.53100586 C-135.27458718 326.49708855 -135.27458718 326.49708855 -132.25 362.3125 C-128.77722405 367.97183859 -123.94882213 370.24087863 -117.7421875 372.0390625 C-102.89777442 375.28492542 -88.9403621 371.49010987 -75.9765625 364.07421875 C-45.90560668 344.64441779 -28.25226615 310.29640133 -20.77001953 276.12011719 C-18.96051223 267.25762178 -17.67505107 258.35449544 -17.25 249.3125 C-17.19714844 248.44882812 -17.14429688 247.58515625 -17.08984375 246.6953125 C-16.62917645 233.19575773 -19.31764816 218.36760562 -28.32421875 207.90234375 C-34.51745844 201.94688988 -40.63284113 199.28503302 -49.1875 198.9375 C-65.79823674 199.52890394 -79.86998156 210.52090868 -90.22265625 222.7578125 Z M-107.25 219.3125 C-106.25 221.3125 -106.25 221.3125 -106.25 221.3125 Z " fill="#473527" transform="translate(436.25,22.6875)"/>
<path d="M0 0 C0.82564453 0.37125 0.82564453 0.37125 1.66796875 0.75 C0.83136719 1.37003906 -0.00523437 1.99007813 -0.8671875 2.62890625 C-14.43823137 12.87570488 -26.07479404 24.49936548 -36.2578125 38.1171875 C-38.33203125 40.75 -38.33203125 40.75 -40.33203125 41.75 C-38.69388873 32.00969315 -26.97955397 22.80860633 -20.33203125 15.75 C-19.71457031 15.09 -19.09710938 14.43 -18.4609375 13.75 C-4.70182182 -0.5040479 -4.70182182 -0.5040479 0 0 Z " fill="#402A1E" transform="translate(326.33203125,29.25)"/>
<path d="M0 0 C0.33 0 0.66 0 1 0 C1.32046578 4.59334282 1.05305441 7.43810319 -2 11 C-6.51791632 12.12161824 -10.60342037 11.96489305 -15.21875 11.59765625 C-21.21833241 11.15905719 -27.20536441 10.85127287 -33.21875 10.68359375 C-34.36404175 10.65164413 -34.36404175 10.65164413 -35.5324707 10.61904907 C-37.85493061 10.55644454 -40.17745577 10.49688461 -42.5 10.4375 C-44.11328823 10.39413902 -45.72656955 10.35052038 -47.33984375 10.30664062 C-51.22648977 10.20147286 -55.11321094 10.09973526 -59 10 C-59 9.67 -59 9.34 -59 9 C-40.3039711 7.61143552 -21.6960289 7.61143552 -3 9 C-2.01 6.03 -1.02 3.06 0 0 Z " fill="#372217" transform="translate(312,543)"/>
<path d="M0 0 C0.66 0 1.32 0 2 0 C0.20836479 6.3521612 -3.09162765 11.69578959 -6.3671875 17.3671875 C-8.73576535 21.52971781 -10.54264094 25.41972868 -12 30 C-12.98054441 31.67818665 -13.98258104 33.34390929 -15 35 C-16.28647919 37.57786594 -17.48708818 40.19364749 -18.6875 42.8125 C-19.00783203 43.50537109 -19.32816406 44.19824219 -19.65820312 44.91210938 C-20.44131893 46.60691223 -21.22101041 48.30329664 -22 50 C-23.09389237 46.75359515 -22.9650106 45.14295056 -21.55078125 42.04296875 C-21.20281494 41.27073975 -20.85484863 40.49851074 -20.49633789 39.70288086 C-20.10567139 38.87280518 -19.71500488 38.04272949 -19.3125 37.1875 C-18.91474365 36.32326416 -18.5169873 35.45902832 -18.10717773 34.56860352 C-6.57898596 9.86847895 -6.57898596 9.86847895 0 0 Z " fill="#3D281C" transform="translate(268,95)"/>
<path d="M0 0 C8.47772015 2.87479784 12.99933212 10.31360471 16.9375 18 C19.56037024 23.49610536 20.89531377 27.92819894 21 34 C18.98864573 30.9829686 18.04873772 28.41450973 16.875 25 C13.29183062 15.52944021 7.97598642 8.18138947 0 2 C0 1.34 0 0.68 0 0 Z " fill="#3D281C" transform="translate(443,208)"/>
<path d="M0 0 C2.85989162 2.85989162 2.96902828 5.54729924 3.0534668 9.5078125 C2.94068976 12.3391237 2.82271918 15.16965879 2.6875 18 C2.63432617 19.47726562 2.63432617 19.47726562 2.58007812 20.984375 C2.53689453 21.93828125 2.49371094 22.8921875 2.44921875 23.875 C2.41143311 24.73867188 2.37364746 25.60234375 2.3347168 26.4921875 C1.96687912 29.24815291 1.12868506 31.4687515 0 34 C-0.33 34 -0.66 34 -1 34 C-0.67 22.78 -0.34 11.56 0 0 Z " fill="#3A2519" transform="translate(465,250)"/>
<path d="M0 0 C-1.01707031 0.49306641 -1.01707031 0.49306641 -2.0546875 0.99609375 C-10.67657186 5.40256928 -17.22791272 11.1627965 -24 18 C-23.41785177 12.09535369 -20.08446923 9.85746791 -15.7734375 6.1640625 C-5.41510421 -1.9183553 -5.41510421 -1.9183553 0 0 Z " fill="#3C271B" transform="translate(44,466)"/>
<path d="M0 0 C5.20867718 0.41121136 9.04176359 2.41401088 13.5859375 4.7890625 C16.31633543 6.15867959 19.06747087 7.15110999 22 8 C22 8.33 22 8.66 22 9 C17.34468907 9.27546219 14.41082583 8.56891892 10.25 6.5 C6.77459365 4.62504752 6.77459365 4.62504752 3 4 C2.67 4.99 2.34 5.98 2 7 C1.34 7 0.68 7 0 7 C0 4.69 0 2.38 0 0 Z " fill="#3F2A1E" transform="translate(289,400)"/>
<path d="M0 0 C4.55305858 2.01181658 7.84794062 4.10627959 11 8 C11 9.65 11 11.3 11 13 C7.37 12.67 3.74 12.34 0 12 C2.91765 10.0549 4.62537285 9.54723683 8 9 C4.7129243 5.18699218 1.60272162 3.77027754 -3 2 C-2.01 1.34 -1.02 0.68 0 0 Z " fill="#3B2419" transform="translate(69,463)"/>
<path d="M0 0 C0.90878906 0.09990234 1.81757813 0.19980469 2.75390625 0.30273438 C4.96214562 0.54680294 7.16887234 0.800141 9.375 1.0625 C9.375 1.3925 9.375 1.7225 9.375 2.0625 C6.735 2.3925 4.095 2.7225 1.375 3.0625 C1.375 2.7325 1.375 2.4025 1.375 2.0625 C-0.62454746 2.01995644 -2.62541636 2.02169217 -4.625 2.0625 C-4.955 2.3925 -5.285 2.7225 -5.625 3.0625 C-9.125 3.1875 -9.125 3.1875 -12.625 3.0625 C-12.955 2.7325 -13.285 2.4025 -13.625 2.0625 C-15.95317964 1.69489269 -18.2868385 1.36008419 -20.625 1.0625 C-20.625 0.7325 -20.625 0.4025 -20.625 0.0625 C-13.56017962 -0.91782703 -7.07019544 -0.84318627 0 0 Z " fill="#4F3C2F" transform="translate(398.625,5.9375)"/>
<path d="M0 0 C0.33 0 0.66 0 1 0 C1.45755719 7.62595318 -0.25463701 14.6029854 -2 22 C-2.66 22 -3.32 22 -4 22 C-4 23.65 -4 25.3 -4 27 C-4.33 27 -4.66 27 -5 27 C-4.64766507 17.53980718 -2.64972557 9.02139123 0 0 Z " fill="#412C1E" transform="translate(268,477)"/>
<path d="M0 0 C1.38963243 2.70612632 2.59632763 5.4366586 3.75 8.25 C5.57458142 12.43824372 7.91598046 15.77021412 10.828125 19.2734375 C12 21 12 21 12 24 C6.01990538 20.13052701 2.22461094 13.67383282 0 7 C-0.03954234 4.66700175 -0.04401732 2.33291811 0 0 Z " fill="#3C271D" transform="translate(11,523)"/>
<path d="M0 0 C0.99 0.33 1.98 0.66 3 1 C1.41956865 3.39779184 -0.16422444 5.79324617 -1.75 8.1875 C-2.1934375 8.86103516 -2.636875 9.53457031 -3.09375 10.22851562 C-5.57332763 13.96611426 -8.12896449 17.54536615 -11 21 C-10.57774121 15.2321246 -8.16731684 11.70982941 -4.9375 7.125 C-4.46505859 6.43664062 -3.99261719 5.74828125 -3.50585938 5.0390625 C-2.34661593 3.35289022 -1.17457523 1.67552837 0 0 Z " fill="#372216" transform="translate(282,73)"/>
<path d="M0 0 C0.66 0 1.32 0 2 0 C4.01426463 18.31431382 4.01426463 18.31431382 -1 25 C-0.67 16.75 -0.34 8.5 0 0 Z " fill="#372216" transform="translate(448,49)"/>
<path d="M0 0 C1.140625 1.625 1.140625 1.625 2 4 C1.171875 6.875 1.171875 6.875 -0.25 10 C-0.70890625 11.03125 -1.1678125 12.0625 -1.640625 13.125 C-2.73189495 15.43297323 -3.84089369 17.72552725 -5 20 C-5.42159892 13.6760162 -4.15339068 7.95639716 -2 2 C-1.34 1.34 -0.68 0.68 0 0 Z " fill="#412B1E" transform="translate(229,472)"/>
<path d="M0 0 C-0.33 1.32 -0.66 2.64 -1 4 C-9.71700174 4.14368684 -18.31320899 3.71961582 -27 3 C-27 2.67 -27 2.34 -27 2 C-23.62545836 1.66191643 -20.25030319 1.33038682 -16.875 1 C-15.92367188 0.90460938 -14.97234375 0.80921875 -13.9921875 0.7109375 C-9.30899618 0.25562723 -4.7123674 -0.12693246 0 0 Z " fill="#4E3B30" transform="translate(349,196)"/>
<path d="M0 0 C4.38994347 0.83331608 8.72530627 1.86810943 13.0625 2.9375 C14.12307617 3.19176758 14.12307617 3.19176758 15.20507812 3.45117188 C18.68671024 4.3109552 21.88477881 5.19559916 25 7 C16.24366299 7.50517329 7.34721873 6.01007786 0 1 C0 0.67 0 0.34 0 0 Z " fill="#3D271B" transform="translate(272,533)"/>
<path d="M0 0 C0.66 0 1.32 0 2 0 C0.16092934 8.82753915 -4.94600177 14.62552516 -12 20 C-10.50334145 16.76840889 -8.64942968 14.00630936 -6.5625 11.125 C-3.99828876 7.51373583 -1.80650445 4.03806877 0 0 Z " fill="#3E291C" transform="translate(403,84)"/>
<path d="M0 0 C0.7734375 0.47050781 1.546875 0.94101562 2.34375 1.42578125 C8.11923007 4.87820313 13.5995252 7.90753708 20 10 C20 10.33 20 10.66 20 11 C15.22095825 11.31766156 12.4525224 10.56065092 8.3125 8.1875 C6.91451172 7.40439453 6.91451172 7.40439453 5.48828125 6.60546875 C3.31837348 5.20541837 1.63095299 3.99096268 0 2 C0 1.34 0 0.68 0 0 Z " fill="#382418" transform="translate(26,548)"/>
<path d="M0 0 C0.66 0 1.32 0 2 0 C0.62394084 4.76551013 -1.46778066 8.7248553 -4.125 12.875 C-4.49753906 13.46796875 -4.87007813 14.0609375 -5.25390625 14.671875 C-6.16365 16.1181343 -7.08103798 17.55958046 -8 19 C-8.7421875 17.4140625 -8.7421875 17.4140625 -9 15 C-7.79444253 12.64130059 -6.58507879 10.56267658 -5.125 8.375 C-4.37725183 7.21637315 -3.62984123 6.05752834 -2.8828125 4.8984375 C-2.26148438 3.94195312 -1.64015625 2.98546875 -1 2 C-0.67 1.34 -0.34 0.68 0 0 Z " fill="#40291C" transform="translate(401,338)"/>
<path d="M0 0 C0.66 0.66 1.32 1.32 2 2 C0.58611621 3.75224914 -0.83122783 5.50170655 -2.25 7.25 C-3.03890625 8.22453125 -3.8278125 9.1990625 -4.640625 10.203125 C-6.66465805 12.60247544 -8.74122349 14.82411437 -11 17 C-10.47903395 12.55175141 -8.87794815 10.12407776 -6.0625 6.6875 C-5.35222656 5.80449219 -4.64195312 4.92148438 -3.91015625 4.01171875 C-3.27980469 3.34785156 -2.64945312 2.68398437 -2 2 C-1.34 2 -0.68 2 0 2 C0 1.34 0 0.68 0 0 Z " fill="#3D281D" transform="translate(343,226)"/>
<path d="M0 0 C0.33 0.99 0.66 1.98 1 3 C-0.31285118 5.32638414 -1.64057365 7.40250606 -3.1875 9.5625 C-3.58775391 10.15224609 -3.98800781 10.74199219 -4.40039062 11.34960938 C-6.59077104 14.4701027 -8.34412067 16.714139 -12 18 C-8.15717678 11.87584657 -4.27631922 5.83134439 0 0 Z " fill="#422B1F" transform="translate(165,491)"/>
<path d="M0 0 C0.33 0.99 0.66 1.98 1 3 C-2.63 6.63 -6.26 10.26 -10 14 C-10.99 13.67 -11.98 13.34 -13 13 C-8.71 8.71 -4.42 4.42 0 0 Z " fill="#402B1E" transform="translate(424,365)"/>
<path d="M0 0 C0.33 0 0.66 0 1 0 C2.70159453 19.00455581 2.70159453 19.00455581 -1 27 C-1.33 27 -1.66 27 -2 27 C-1.93941406 26.3915625 -1.87882812 25.783125 -1.81640625 25.15625 C-1.01587372 16.78144813 -0.49518882 8.39713805 0 0 Z " fill="#4F3B2F" transform="translate(407,56)"/>
<path d="M0 0 C0.33 0 0.66 0 1 0 C1.29804685 4.90287065 0.34842506 8.3463586 -1.5 12.875 C-1.9640625 14.02742188 -2.428125 15.17984375 -2.90625 16.3671875 C-3.2671875 17.23601562 -3.628125 18.10484375 -4 19 C-4.66 19 -5.32 19 -6 19 C-5.39124245 14.39583374 -4.15277044 10.43516676 -2.4375 6.125 C-1.75494141 4.39636719 -1.75494141 4.39636719 -1.05859375 2.6328125 C-0.70925781 1.76398438 -0.35992187 0.89515625 0 0 Z " fill="#40281C" transform="translate(201,414)"/>
<path d="M0 0 C0.5775 0.226875 1.155 0.45375 1.75 0.6875 C0.29634731 1.85999353 -1.16307419 3.02533816 -2.625 4.1875 C-3.84316406 5.16203125 -3.84316406 5.16203125 -5.0859375 6.15625 C-7.25 7.6875 -7.25 7.6875 -9.25 7.6875 C-9.91 9.0075 -10.57 10.3275 -11.25 11.6875 C-12.24 11.6875 -13.23 11.6875 -14.25 11.6875 C-13.00479583 10.24584372 -11.75362077 8.80934348 -10.5 7.375 C-9.80390625 6.57449219 -9.1078125 5.77398437 -8.390625 4.94921875 C-3.27578019 -0.45496947 -3.27578019 -0.45496947 0 0 Z " fill="#432D22" transform="translate(365.25,208.3125)"/>
<path d="M0 0 C0.54269531 0.23203125 1.08539063 0.4640625 1.64453125 0.703125 C-0.64366021 2.20867134 -2.93568044 3.70769543 -5.23046875 5.203125 C-6.20693359 5.84701172 -6.20693359 5.84701172 -7.203125 6.50390625 C-12.12890625 9.703125 -12.12890625 9.703125 -14.35546875 9.703125 C-13.06182022 5.8221794 -11.44843533 5.13623205 -8.04296875 2.953125 C-7.07746094 2.31890625 -6.11195313 1.6846875 -5.1171875 1.03125 C-2.35546875 -0.296875 -2.35546875 -0.296875 0 0 Z " fill="#442D21" transform="translate(343.35546875,18.296875)"/>
<path d="M0 0 C-5.48371854 4.85098178 -12.08550661 4.13828987 -19 4 C-15.93089979 1.9539332 -14.19311799 1.49086694 -10.625 0.875 C-9.68914062 0.70742188 -8.75328125 0.53984375 -7.7890625 0.3671875 C-5.15262977 0.02009412 -2.65503612 -0.06758274 0 0 Z " fill="#3B2418" transform="translate(199,559)"/>
<path d="M0 0 C0.66 0 1.32 0 2 0 C1.35729017 5.9129304 -0.19003784 11.34244531 -2 17 C-2.33 17 -2.66 17 -3 17 C-3.40214229 10.83381819 -1.96818336 5.82254243 0 0 Z " fill="#402B1F" transform="translate(284,274)"/>
<path d="M0 0 C0.33 0.99 0.66 1.98 1 3 C-0.92989218 4.19982444 -2.86919228 5.38452818 -4.8125 6.5625 C-6.43091797 7.55443359 -6.43091797 7.55443359 -8.08203125 8.56640625 C-11 10 -11 10 -14 9 C-9.38 6.03 -4.76 3.06 0 0 Z " fill="#3B271C" transform="translate(142,232)"/>
<path d="M0 0 C0.66 0 1.32 0 2 0 C0.51194289 5.80342274 -2.59097555 10.17590879 -6 15 C-6.66 14.34 -7.32 13.68 -8 13 C-7.50628906 12.22914063 -7.01257813 11.45828125 -6.50390625 10.6640625 C-5.86324219 9.66117188 -5.22257813 8.65828125 -4.5625 7.625 C-3.92441406 6.62726562 -3.28632813 5.62953125 -2.62890625 4.6015625 C-1.03100789 2.14169479 -1.03100789 2.14169479 0 0 Z " fill="#3F2A1D" transform="translate(209,522)"/>
<path d="M0 0 C1.15811981 2.83470023 1.05503177 3.86300189 -0.109375 6.76171875 C-0.65078125 7.72722656 -1.1921875 8.69273437 -1.75 9.6875 C-2.28109375 10.66074219 -2.8121875 11.63398438 -3.359375 12.63671875 C-5 15 -5 15 -8 16 C-6.57250019 12.20950293 -4.83763458 8.72877544 -2.875 5.1875 C-2.33617187 4.21167969 -1.79734375 3.23585938 -1.2421875 2.23046875 C-0.83226562 1.49441406 -0.42234375 0.75835937 0 0 Z " fill="#3F281D" transform="translate(177,470)"/>
<path d="M0 0 C0.33 0.99 0.66 1.98 1 3 C-0.725227 3.67679658 -2.45538939 4.34102 -4.1875 5 C-5.15042969 5.37125 -6.11335938 5.7425 -7.10546875 6.125 C-9.92182358 6.97636772 -12.08164439 7.17072647 -15 7 C-12.39473112 4.39473112 -9.82060766 3.65865776 -6.375 2.375 C-4.59222656 1.70597656 -4.59222656 1.70597656 -2.7734375 1.0234375 C-1.40058594 0.51683594 -1.40058594 0.51683594 0 0 Z " fill="#412B1F" transform="translate(376,401)"/>
<path d="M0 0 C0.99 0.33 1.98 0.66 3 1 C2.34 2.32 1.68 3.64 1 5 C0.34 5 -0.32 5 -1 5 C-1.99 7.97 -2.98 10.94 -4 14 C-5.07857377 9.68570492 -4.93460305 9.08770636 -3.125 5.3125 C-2.75632812 4.52488281 -2.38765625 3.73726563 -2.0078125 2.92578125 C-1 1 -1 1 0 0 Z " fill="#422D1F" transform="translate(410,319)"/>
<path d="M0 0 C5.09460217 2.39745985 8.09482341 6.29780696 11 11 C11 11.66 11 12.32 11 13 C10.34 13 9.68 13 9 13 C7.59765625 11.35546875 7.59765625 11.35546875 6.0625 9.1875 C4.56247678 7.08132929 3.16841488 5.16296959 1.30859375 3.36328125 C0 2 0 2 0 0 Z " fill="#3F291B" transform="translate(403,225)"/>
<path d="M0 0 C0.33 0 0.66 0 1 0 C2.33257403 12.66970387 2.33257403 12.66970387 1 18 C-1.23920243 14.64119635 -1.24603334 13.48423396 -1.1875 9.5625 C-1.18105469 8.61503906 -1.17460938 7.66757812 -1.16796875 6.69140625 C-1.01959281 4.3139406 -0.67263878 2.27620963 0 0 Z " fill="#2D180B" transform="translate(47,501)"/>
<path d="M0 0 C0.33 0 0.66 0 1 0 C0.57910004 5.60461531 0.08386889 10.72086547 -2 16 C-2.66 16 -3.32 16 -4 16 C-2.98408579 10.53135543 -1.92908943 5.23609987 0 0 Z " fill="#40291D" transform="translate(253,243)"/>
<path d="M0 0 C1.32 0.33 2.64 0.66 4 1 C0.04 3.97 -3.92 6.94 -8 10 C-8 7 -8 7 -6.390625 5.140625 C-5.68421875 4.51671875 -4.9778125 3.8928125 -4.25 3.25 C-3.55390625 2.61578125 -2.8578125 1.9815625 -2.140625 1.328125 C-1.43421875 0.88984375 -0.7278125 0.4515625 0 0 Z " fill="#3C271A" transform="translate(324,29)"/>
<path d="M0 0 C0.33 0 0.66 0 1 0 C1.2396943 5.63281599 0.38529821 10.54538831 -1 16 C-1.66 16 -2.32 16 -3 16 C-2.52013969 10.43109483 -1.70084819 5.32932432 0 0 Z " fill="#412D20" transform="translate(305,339)"/>
<path d="M0 0 C3.66060821 0.58536753 5.54535164 2.083239 8.25 4.5625 C8.95640625 5.20316406 9.6628125 5.84382813 10.390625 6.50390625 C10.92171875 6.99761719 11.4528125 7.49132812 12 8 C11.67 8.99 11.34 9.98 11 11 C7.33333333 7.33333333 3.66666667 3.66666667 0 0 Z " fill="#382519" transform="translate(426,17)"/>
<path d="M0 0 C1.11346788 2.80033839 1.03510273 3.90143703 0.00390625 6.796875 C-0.47175781 7.77140625 -0.94742187 8.7459375 -1.4375 9.75 C-1.91058594 10.73484375 -2.38367188 11.7196875 -2.87109375 12.734375 C-3.24363281 13.48203125 -3.61617188 14.2296875 -4 15 C-4.66 14.67 -5.32 14.34 -6 14 C-4.50829734 9.0276578 -2.39542583 4.58154261 0 0 Z " fill="#3F291D" transform="translate(306,87)"/>
<path d="M0 0 C0.33 0 0.66 0 1 0 C0.48594831 4.96916636 -0.23384882 9.29026351 -2 14 C-2.33 14 -2.66 14 -3 14 C-3.34615998 8.34605369 -2.43425238 4.96993194 0 0 Z " fill="#3F2A1D" transform="translate(249,401)"/>
<path d="M0 0 C1.24546405 2.49092811 0.7767578 3.41080733 0 6 C1.32 6 2.64 6 4 6 C4 6.66 4 7.32 4 8 C2.02 8 0.04 8 -2 8 C-2.93423645 4.98968256 -3.04449911 4.13349732 -2 1 C-1.34 0.67 -0.68 0.34 0 0 Z " fill="#402E22" transform="translate(161,560)"/>
<path d="M0 0 C0.99 0.33 1.98 0.66 3 1 C1.57277341 2.1998278 0.13284224 3.3845576 -1.3125 4.5625 C-2.51326172 5.55443359 -2.51326172 5.55443359 -3.73828125 6.56640625 C-4.85783203 7.27603516 -4.85783203 7.27603516 -6 8 C-6.99 7.67 -7.98 7.34 -9 7 C-7.57277341 5.8001722 -6.13284224 4.6154424 -4.6875 3.4375 C-3.88699219 2.77621094 -3.08648437 2.11492187 -2.26171875 1.43359375 C-1.51535156 0.96050781 -0.76898438 0.48742187 0 0 Z " fill="#3B2619" transform="translate(65,475)"/>
<path d="M0 0 C2 2.5 2 2.5 4 5 C4.763125 5.86625 5.52625 6.7325 6.3125 7.625 C6.869375 8.40875 7.42625 9.1925 8 10 C7.67 10.99 7.34 11.98 7 13 C0 4.89473684 0 4.89473684 0 0 Z " fill="#3E271B" transform="translate(300,378)"/>
<path d="M0 0 C0.33 0 0.66 0 1 0 C1.21192221 5.19209404 0.5912689 9.126739 -1 14 C-1.66 14 -2.32 14 -3 14 C-2.40380045 9.13103697 -1.43023178 4.67209049 0 0 Z " fill="#412A1E" transform="translate(310,320)"/>
<path d="M0 0 C0.33 0 0.66 0 1 0 C0.55966813 5.19591612 0.11696661 8.66335081 -3 13 C-3.66 12.67 -4.32 12.34 -5 12 C-3.35 8.04 -1.7 4.08 0 0 Z " fill="#3D271A" transform="translate(193,435)"/>
<path d="M0 0 C0.33 0 0.66 0 1 0 C0.85851011 1.6045556 0.71164314 3.20863767 0.5625 4.8125 C0.48128906 5.70582031 0.40007812 6.59914063 0.31640625 7.51953125 C0 10 0 10 -1 13 C-1.66 13 -2.32 13 -3 13 C-2.45144652 8.428721 -1.58255197 4.32564205 0 0 Z " fill="#402B1F" transform="translate(232,314)"/>
<path d="M0 0 C3 3 3 3 3.07421875 5.48046875 C2.94660156 6.37378906 2.81898438 7.26710938 2.6875 8.1875 C2.56761719 9.08855469 2.44773437 9.98960937 2.32421875 10.91796875 C2.21722656 11.60503906 2.11023438 12.29210937 2 13 C1.01 12.34 0.02 11.68 -1 11 C-0.67 7.37 -0.34 3.74 0 0 Z " fill="#503E31" transform="translate(463,277)"/>
<path d="M0 0 C-1.62170379 1.00533667 -3.24747237 2.00411907 -4.875 3 C-6.23238281 3.8353125 -6.23238281 3.8353125 -7.6171875 4.6875 C-10 6 -10 6 -12 6 C-12 5.34 -12 4.68 -12 4 C-10.56988027 3.13353333 -9.13059381 2.28218171 -7.6875 1.4375 C-6.48673828 0.72400391 -6.48673828 0.72400391 -5.26171875 -0.00390625 C-3 -1 -3 -1 0 0 Z " fill="#3E281B" transform="translate(106,535)"/>
<path d="M0 0 C0.33 0 0.66 0 1 0 C0.67 5.94 0.34 11.88 0 18 C-0.33 18 -0.66 18 -1 18 C-2.51708428 5.33029613 -2.51708428 5.33029613 0 0 Z " fill="#503C2F" transform="translate(49,493)"/>
<path d="M0 0 C0.33 0 0.66 0 1 0 C0.85851011 1.6045556 0.71164314 3.20863767 0.5625 4.8125 C0.48128906 5.70582031 0.40007812 6.59914063 0.31640625 7.51953125 C0 10 0 10 -1 13 C-1.66 13 -2.32 13 -3 13 C-2.45144652 8.428721 -1.58255197 4.32564205 0 0 Z " fill="#3B251A" transform="translate(224,341)"/>
<path d="M0 0 C0.66 0.66 1.32 1.32 2 2 C0.35 4.97 -1.3 7.94 -3 11 C-3.66 11 -4.32 11 -5 11 C-3.77472971 6.94718288 -2.30119506 3.55639236 0 0 Z " fill="#382319" transform="translate(450,326)"/>
<path d="M0 0 C0.65234375 1.734375 0.65234375 1.734375 1 4 C0.00390625 6.140625 0.00390625 6.140625 -1.4375 8.25 C-1.91058594 8.95640625 -2.38367188 9.6628125 -2.87109375 10.390625 C-3.24363281 10.92171875 -3.61617188 11.4528125 -4 12 C-4.65234375 10.265625 -4.65234375 10.265625 -5 8 C-4.00390625 5.859375 -4.00390625 5.859375 -2.5625 3.75 C-2.08941406 3.04359375 -1.61632812 2.3371875 -1.12890625 1.609375 C-0.75636719 1.07828125 -0.38382812 0.5471875 0 0 Z " fill="#40291D" transform="translate(276,82)"/>
<path d="M0 0 C0.66 0.33 1.32 0.66 2 1 C1.07038578 2.15224028 0.1309875 3.29659176 -0.8125 4.4375 C-1.59560547 5.39462891 -1.59560547 5.39462891 -2.39453125 6.37109375 C-4 8 -4 8 -7 9 C-5.44499019 5.18315774 -2.96404505 2.80804268 0 0 Z " fill="#3E281A" transform="translate(114,524)"/>
<path d="M0 0 C2.96404505 2.80804268 5.44499019 5.18315774 7 9 C6.01 9 5.02 9 4 9 C0 3.85714286 0 3.85714286 0 0 Z " fill="#412A1C" transform="translate(264,522)"/>
<path d="M0 0 C1.61949011 2.57213134 2.04408751 3.67669159 1.625 6.75 C1.41875 7.4925 1.2125 8.235 1 9 C0.34 9 -0.32 9 -1 9 C-1 10.65 -1 12.3 -1 14 C-1.33 14 -1.66 14 -2 14 C-1.85923685 12.0412957 -1.7122324 10.08303907 -1.5625 8.125 C-1.48128906 7.03445313 -1.40007812 5.94390625 -1.31640625 4.8203125 C-1 2 -1 2 0 0 Z " fill="#331F13" transform="translate(265,490)"/>
<path d="M0 0 C1.73745313 2.65728125 2.00831972 3.89600355 1.75 7.125 C1 10 1 10 -1 12 C-0.979375 11.21625 -0.95875 10.4325 -0.9375 9.625 C-0.81315937 7.01885039 -0.81315937 7.01885039 -2 5 C-1.0625 2.375 -1.0625 2.375 0 0 Z " fill="#4C3A2E" transform="translate(223,488)"/>
<path d="M0 0 C0.66 0 1.32 0 2 0 C0.84807997 3.4557601 0.08865366 4.19828537 -3 6 C-5.75 6.1875 -5.75 6.1875 -8 6 C-5.76019711 2.64029566 -4.65777032 2.31304575 -1 1 C-0.67 0.67 -0.34 0.34 0 0 Z " fill="#402C1F" transform="translate(405,383)"/>
<path d="M0 0 C1.18771723 3.42943519 0.80226223 5.37784675 -0.4375 8.75 C-0.86869141 9.94882812 -0.86869141 9.94882812 -1.30859375 11.171875 C-1.65083984 12.07679688 -1.65083984 12.07679688 -2 13 C-2.33 13 -2.66 13 -3 13 C-2.88557539 11.39504433 -2.75805306 9.79101881 -2.625 8.1875 C-2.55539062 7.29417969 -2.48578125 6.40085937 -2.4140625 5.48046875 C-2 3 -2 3 0 0 Z " fill="#3D2518" transform="translate(264,349)"/>
<path d="M0 0 C1.18414294 3.55242882 0.69535532 4.69830562 -0.4375 8.1875 C-0.72496094 9.08855469 -1.01242187 9.98960937 -1.30859375 10.91796875 C-1.53675781 11.60503906 -1.76492188 12.29210937 -2 13 C-2.33 13 -2.66 13 -3 13 C-3.31563182 7.73946963 -2.66590937 4.55426184 0 0 Z " fill="#392317" transform="translate(273,317)"/>
<path d="M0 0 C1.12377697 3.30435084 0.89554742 5.0506862 -0.4375 8.25 C-0.72496094 8.95640625 -1.01242187 9.6628125 -1.30859375 10.390625 C-1.53675781 10.92171875 -1.76492188 11.4528125 -2 12 C-2.66 12 -3.32 12 -4 12 C-3.33501617 7.61110675 -1.81242323 4.0188515 0 0 Z " fill="#382318" transform="translate(296,109)"/>
<path d="M0 0 C0 0.33 0 0.66 0 1 C-4.76307437 1.95261487 -9.1666528 2.08333357 -14 2 C-14 1.34 -14 0.68 -14 0 C-8.97703996 -1.13016601 -5.02125926 -0.77916092 0 0 Z " fill="#362014" transform="translate(385,7)"/>
<path d="M0 0 C0.99 0.33 1.98 0.66 3 1 C1.71283353 2.00578589 0.42011342 3.00446798 -0.875 4 C-1.95394531 4.8353125 -1.95394531 4.8353125 -3.0546875 5.6875 C-5 7 -5 7 -7 7 C-7 6.34 -7 5.68 -7 5 C-5.57421875 3.67578125 -5.57421875 3.67578125 -3.6875 2.3125 C-3.07261719 1.85488281 -2.45773438 1.39726563 -1.82421875 0.92578125 C-1.22222656 0.62027344 -0.62023437 0.31476562 0 0 Z " fill="#3E281A" transform="translate(195,541)"/>
<path d="M0 0 C1.37432457 3.81756824 0.67975039 7.07255329 0 11 C-0.66 10.67 -1.32 10.34 -2 10 C-2.25 3.375 -2.25 3.375 0 0 Z " fill="#402B1D" transform="translate(260,363)"/>
<path d="M0 0 C1 3 1 3 0.07421875 5.04296875 C-0.61220703 6.10451172 -0.61220703 6.10451172 -1.3125 7.1875 C-1.76238281 7.90292969 -2.21226562 8.61835938 -2.67578125 9.35546875 C-3.11277344 9.89816406 -3.54976563 10.44085938 -4 11 C-4.66 11 -5.32 11 -6 11 C-4.54955729 6.89041233 -2.48889248 3.56741255 0 0 Z " fill="#3C281D" transform="translate(443,339)"/>
<path d="M0 0 C0.66 0 1.32 0 2 0 C0.74194623 4.50802601 -0.90407165 7.4912812 -4 11 C-3.39301257 6.87248551 -1.96189209 3.6678852 0 0 Z " fill="#3A2519" transform="translate(130,500)"/>
<path d="M0 0 C0.66 0.33 1.32 0.66 2 1 C-0.31 3.64 -2.62 6.28 -5 9 C-5.33 8.34 -5.66 7.68 -6 7 C-4.02 4.69 -2.04 2.38 0 0 Z " fill="#40281C" transform="translate(387,361)"/>
<path d="M0 0 C-2.77079887 3.80984844 -6.62868145 4.06840752 -11 5 C-4.83050847 -1.61016949 -4.83050847 -1.61016949 0 0 Z " fill="#3E271A" transform="translate(390,106)"/>
<path d="M0 0 C1 3 1 3 0.00390625 5.04296875 C-0.47175781 5.75066406 -0.94742187 6.45835938 -1.4375 7.1875 C-1.91058594 7.90292969 -2.38367188 8.61835937 -2.87109375 9.35546875 C-3.24363281 9.89816406 -3.61617188 10.44085938 -4 11 C-4.65234375 9.234375 -4.65234375 9.234375 -5 7 C-4.00390625 5.078125 -4.00390625 5.078125 -2.5625 3.25 C-2.08941406 2.63640625 -1.61632812 2.0228125 -1.12890625 1.390625 C-0.75636719 0.93171875 -0.38382812 0.4728125 0 0 Z " fill="#3E281D" transform="translate(319,65)"/>
<path d="M0 0 C-1.38009621 3.33523252 -2.84950652 5.18607951 -6 7 C-6.99 6.67 -7.98 6.34 -9 6 C-7.8803014 4.99406757 -6.7540588 3.9954151 -5.625 3 C-4.68527344 2.1646875 -4.68527344 2.1646875 -3.7265625 1.3125 C-2 0 -2 0 0 0 Z " fill="#382217" transform="translate(346,38)"/>
<path d="M0 0 C0.66 0 1.32 0 2 0 C1.25 7.75 1.25 7.75 -1 10 C-1.125 3.375 -1.125 3.375 0 0 Z " fill="#382416" transform="translate(181,344)"/>
<path d="M0 0 C0.33 0.99 0.66 1.98 1 3 C-1.3125 6.1875 -1.3125 6.1875 -4 9 C-4.66 9 -5.32 9 -6 9 C-4.47291037 5.56404834 -2.40072955 2.88087546 0 0 Z " fill="#392418" transform="translate(327,55)"/>
<path d="M0 0 C0.66 0.33 1.32 0.66 2 1 C-0.11770166 3.32947183 -2.03335588 4.88750845 -5 6 C-5.99 5.67 -6.98 5.34 -8 5 C-6.71475739 4.13619741 -5.42157581 3.28419631 -4.125 2.4375 C-3.04605469 1.72400391 -3.04605469 1.72400391 -1.9453125 0.99609375 C-1.30335938 0.66738281 -0.66140625 0.33867187 0 0 Z " fill="#3C2519" transform="translate(355,31)"/>
<path d="M0 0 C0.33 0 0.66 0 1 0 C0.67 2.97 0.34 5.94 0 9 C-0.99 9.33 -1.98 9.66 -3 10 C-2.01 6.7 -1.02 3.4 0 0 Z " fill="#3B261A" transform="translate(460,299)"/>
<path d="M0 0 C-6.75 4 -6.75 4 -9 4 C-8 1 -8 1 -6.1875 -0.25 C-3.66056586 -1.11637742 -2.47778006 -0.88492145 0 0 Z " fill="#3A2519" transform="translate(159,206)"/>
<path d="M0 0 C0.33 0 0.66 0 1 0 C0.38461538 7.50769231 0.38461538 7.50769231 -1.5625 10 C-2.036875 10.33 -2.51125 10.66 -3 11 C-2.44894091 7.0507432 -1.61064629 3.65079826 0 0 Z " fill="#3B2418" transform="translate(276,165)"/>
<path d="M0 0 C-1.36983503 3.16115776 -1.9890638 3.9927092 -5 6 C-5.99 5.67 -6.98 5.34 -8 5 C-2.25 0 -2.25 0 0 0 Z " fill="#3E271A" transform="translate(127,537)"/>
<path d="M0 0 C0.33 0.99 0.66 1.98 1 3 C-0.40445835 5.2636564 -2.1967913 7.0208685 -4 9 C-4.66 8.67 -5.32 8.34 -6 8 C-4.02 5.36 -2.04 2.72 0 0 Z " fill="#392318" transform="translate(159,500)"/>
<path d="M0 0 C0 0.66 0 1.32 0 2 C-4.15267176 5.11450382 -4.15267176 5.11450382 -7.3125 4.6875 C-7.869375 4.460625 -8.42625 4.23375 -9 4 C-2.25 0 -2.25 0 0 0 Z " fill="#3F261B" transform="translate(392,394)"/>
<path d="M0 0 C0.99 0.33 1.98 0.66 3 1 C-0.465 3.97 -0.465 3.97 -4 7 C-4 4 -4 4 -2 1.8125 C-1.34 1.214375 -0.68 0.61625 0 0 Z " fill="#3B2416" transform="translate(376,373)"/>
<path d="M0 0 C0.99 0.33 1.98 0.66 3 1 C2.38125 1.2475 1.7625 1.495 1.125 1.75 C-1.35068687 3.20628639 -1.95125002 4.37812506 -3 7 C-3.99 7 -4.98 7 -6 7 C-4.02 4.69 -2.04 2.38 0 0 Z " fill="#392215" transform="translate(357,213)"/>
<path d="M0 0 C0.8971875 0.5259375 0.8971875 0.5259375 1.8125 1.0625 C-1.69526784 2.66605101 -4.33104879 3.28286864 -8.1875 3.0625 C-7.1975 2.7325 -6.2075 2.4025 -5.1875 2.0625 C-5.1875 1.4025 -5.1875 0.7425 -5.1875 0.0625 C-2.1875 -0.9375 -2.1875 -0.9375 0 0 Z " fill="#341E12" transform="translate(181.1875,196.9375)"/>
<path d="M0 0 C1.8871875 0.0309375 1.8871875 0.0309375 3.8125 0.0625 C3.8125 0.3925 3.8125 0.7225 3.8125 1.0625 C-0.06434087 2.25537411 -3.10371923 3.0625 -7.1875 3.0625 C-7.1875 2.4025 -7.1875 1.7425 -7.1875 1.0625 C-4.43671116 0.14557039 -2.82801087 -0.04636083 0 0 Z " fill="#432D20" transform="translate(195.1875,193.9375)"/>
<path d="M0 0 C3.08089673 2.77280706 4.68775452 5.06326356 6 9 C3 8 3 8 1.3125 5.625 C0 3 0 3 0 0 Z " fill="#402D24" transform="translate(438,26)"/>
<path d="M0 0 C-2 2 -2 2 -4.3828125 2.1953125 C-5.28773437 2.17210937 -6.19265625 2.14890625 -7.125 2.125 C-8.49011719 2.09792969 -8.49011719 2.09792969 -9.8828125 2.0703125 C-10.58148438 2.04710937 -11.28015625 2.02390625 -12 2 C-12 1.67 -12 1.34 -12 1 C-7.58774263 -0.47075246 -4.51718381 -1.36884358 0 0 Z " fill="#2F170B" transform="translate(87,543)"/>
<path d="M0 0 C0.33 0 0.66 0 1 0 C1.33 3.63 1.66 7.26 2 11 C1.34 11 0.68 11 0 11 C-1.05404945 7.01803543 -0.84098656 4.01804691 0 0 Z " fill="#503C2D" transform="translate(48,513)"/>
<path d="M0 0 C0.66 0 1.32 0 2 0 C0.7508258 3.45925163 -0.67527795 6.14693203 -3 9 C-2.5020163 5.26512223 -2.12508244 3.18762365 0 0 Z " fill="#392418" transform="translate(17,485)"/>
<path d="M0 0 C0.33 0.66 0.66 1.32 1 2 C0.06553465 4.03144641 -0.93224776 6.03533587 -2 8 C-2.99 7.67 -3.98 7.34 -5 7 C-3.70700306 4.11562221 -2.34058637 2.12780579 0 0 Z " fill="#4D3B2F" transform="translate(245,147)"/>
<path d="M0 0 C2.25 0.25 2.25 0.25 4 1 C2.02 2.32 0.04 3.64 -2 5 C-2.66 4.67 -3.32 4.34 -4 4 C-2.25 1.9375 -2.25 1.9375 0 0 Z " fill="#392417" transform="translate(341,18)"/>
<path d="M0 0 C0 3 0 3 0 3 Z " fill="#101010" transform="translate(114,244)"/>
<path d="M0 0 C4 1 4 1 4 1 Z " fill="#555515" transform="translate(394,4)"/>
<path d="M0 0 C2 1 2 1 2 1 Z " fill="#000000" transform="translate(162,569)"/>
<path d="M0 0 C2 1 2 1 2 1 Z " fill="#000000" transform="translate(43,561)"/>
<path d="" fill="#404000" transform="translate(0,0)"/>
<path d="M0 0 C2 1 2 1 2 1 Z " fill="#808000" transform="translate(261,226)"/>
<path d="M0 0 C2 1 2 1 2 1 Z " fill="#000000" transform="translate(274,196)"/>
<path d="" fill="#000000" transform="translate(0,0)"/>
<path d="" fill="#000000" transform="translate(0,0)"/>
<path d="" fill="#808000" transform="translate(0,0)"/>
<path d="" fill="#555555" transform="translate(0,0)"/>
<path d="" fill="#000000" transform="translate(0,0)"/>
<path d="" fill="#000000" transform="translate(0,0)"/>
<path d="" fill="#000000" transform="translate(0,0)"/>
<path d="" fill="#555555" transform="translate(0,0)"/>
<path d="" fill="#000000" transform="translate(0,0)"/>
<path d="" fill="#000000" transform="translate(0,0)"/>
<path d="" fill="#000000" transform="translate(0,0)"/>
<path d="" fill="#000000" transform="translate(0,0)"/>
<path d="" fill="#000000" transform="translate(0,0)"/>
<path d="" fill="#000000" transform="translate(0,0)"/>
<path d="" fill="#000000" transform="translate(0,0)"/>
<path d="" fill="#000000" transform="translate(0,0)"/>
<path d="" fill="#000000" transform="translate(0,0)"/>
<path d="" fill="#000000" transform="translate(0,0)"/>
<path d="" fill="#000000" transform="translate(0,0)"/>
<path d="" fill="#000000" transform="translate(0,0)"/>
<path d="" fill="#000000" transform="translate(0,0)"/>
<path d="" fill="#000000" transform="translate(0,0)"/>
<path d="" fill="#000000" transform="translate(0,0)"/>
<path d="" fill="#000000" transform="translate(0,0)"/>
<path d="" fill="#000000" transform="translate(0,0)"/>
<path d="" fill="#000000" transform="translate(0,0)"/>
<path d="" fill="#000000" transform="translate(0,0)"/>
<path d="" fill="#000000" transform="translate(0,0)"/>
<path d="" fill="#000000" transform="translate(0,0)"/>
<path d="" fill="#000000" transform="translate(0,0)"/>
<path d="" fill="#000000" transform="translate(0,0)"/>
<path d="" fill="#000000" transform="translate(0,0)"/>
<path d="" fill="#000000" transform="translate(0,0)"/>
<path d="" fill="#000000" transform="translate(0,0)"/>
<path d="" fill="#000000" transform="translate(0,0)"/>
<path d="" fill="#000000" transform="translate(0,0)"/>
<path d="" fill="#000000" transform="translate(0,0)"/>
<path d="" fill="#808080" transform="translate(0,0)"/>
<path d="" fill="#808000" transform="translate(0,0)"/>
<path d="" fill="#000000" transform="translate(0,0)"/>
<path d="" fill="#000000" transform="translate(0,0)"/>
<path d="" fill="#000000" transform="translate(0,0)"/>
<path d="" fill="#808000" transform="translate(0,0)"/>
<path d="" fill="#000000" transform="translate(0,0)"/>
<path d="" fill="#000000" transform="translate(0,0)"/>
<path d="" fill="#000000" transform="translate(0,0)"/>
<path d="" fill="#000000" transform="translate(0,0)"/>
<path d="" fill="#000000" transform="translate(0,0)"/>
<path d="" fill="#808000" transform="translate(0,0)"/>
<path d="" fill="#000000" transform="translate(0,0)"/>
<path d="" fill="#808000" transform="translate(0,0)"/>
<path d="" fill="#808080" transform="translate(0,0)"/>
<path d="" fill="#000000" transform="translate(0,0)"/>
<path d="" fill="#000000" transform="translate(0,0)"/>
<path d="" fill="#000000" transform="translate(0,0)"/>
<path d="" fill="#000000" transform="translate(0,0)"/>
<path d="" fill="#000000" transform="translate(0,0)"/>
<path d="" fill="#000000" transform="translate(0,0)"/>
<path d="" fill="#000000" transform="translate(0,0)"/>
<path d="" fill="#808000" transform="translate(0,0)"/>
<path d="" fill="#000000" transform="translate(0,0)"/>
<path d="" fill="#000000" transform="translate(0,0)"/>
<path d="" fill="#000000" transform="translate(0,0)"/>
<path d="" fill="#000000" transform="translate(0,0)"/>
<path d="" fill="#808000" transform="translate(0,0)"/>
<path d="" fill="#000000" transform="translate(0,0)"/>
<path d="" fill="#000000" transform="translate(0,0)"/>
<path d="" fill="#000000" transform="translate(0,0)"/>
<path d="" fill="#808000" transform="translate(0,0)"/>
<path d="" fill="#808000" transform="translate(0,0)"/>
<path d="" fill="#000000" transform="translate(0,0)"/>
<path d="" fill="#000000" transform="translate(0,0)"/>
<path d="" fill="#000000" transform="translate(0,0)"/>
<path d="" fill="#000000" transform="translate(0,0)"/>
<path d="" fill="#555555" transform="translate(0,0)"/>
<path d="" fill="#000000" transform="translate(0,0)"/>
<path d="" fill="#808000" transform="translate(0,0)"/>
<path d="" fill="#808000" transform="translate(0,0)"/>
<path d="" fill="#000000" transform="translate(0,0)"/>
<path d="" fill="#000000" transform="translate(0,0)"/>
<path d="" fill="#000000" transform="translate(0,0)"/>
<path d="" fill="#000000" transform="translate(0,0)"/>
<path d="" fill="#000000" transform="translate(0,0)"/>
<path d="" fill="#000000" transform="translate(0,0)"/>
<path d="" fill="#555555" transform="translate(0,0)"/>
<path d="" fill="#000000" transform="translate(0,0)"/>
<path d="" fill="#808000" transform="translate(0,0)"/>
<path d="" fill="#000000" transform="translate(0,0)"/>
<path d="" fill="#808000" transform="translate(0,0)"/>
<path d="" fill="#000000" transform="translate(0,0)"/>
<path d="" fill="#808000" transform="translate(0,0)"/>
<path d="" fill="#000000" transform="translate(0,0)"/>
<path d="" fill="#808000" transform="translate(0,0)"/>
<path d="" fill="#000000" transform="translate(0,0)"/>
<path d="" fill="#000000" transform="translate(0,0)"/>
<path d="" fill="#000000" transform="translate(0,0)"/>
<path d="" fill="#000000" transform="translate(0,0)"/>
<path d="" fill="#000000" transform="translate(0,0)"/>
<path d="" fill="#000000" transform="translate(0,0)"/>
<path d="" fill="#555555" transform="translate(0,0)"/>
<path d="" fill="#000000" transform="translate(0,0)"/>
<path d="" fill="#000000" transform="translate(0,0)"/>
<path d="" fill="#000000" transform="translate(0,0)"/>
<path d="" fill="#808000" transform="translate(0,0)"/>
<path d="" fill="#000000" transform="translate(0,0)"/>
<path d="" fill="#000000" transform="translate(0,0)"/>
<path d="" fill="#808080" transform="translate(0,0)"/>
<path d="" fill="#808080" transform="translate(0,0)"/>
<path d="" fill="#808000" transform="translate(0,0)"/>
<path d="" fill="#555555" transform="translate(0,0)"/>
<path d="" fill="#000000" transform="translate(0,0)"/>
<path d="" fill="#555555" transform="translate(0,0)"/>
<path d="" fill="#000000" transform="translate(0,0)"/>
<path d="" fill="#000000" transform="translate(0,0)"/>
<path d="" fill="#808000" transform="translate(0,0)"/>
<path d="" fill="#000000" transform="translate(0,0)"/>
<path d="" fill="#808000" transform="translate(0,0)"/>
<path d="" fill="#808080" transform="translate(0,0)"/>
<path d="" fill="#808000" transform="translate(0,0)"/>
<path d="" fill="#000000" transform="translate(0,0)"/>
<path d="" fill="#000000" transform="translate(0,0)"/>
<path d="" fill="#808000" transform="translate(0,0)"/>
<path d="" fill="#000000" transform="translate(0,0)"/>
<path d="" fill="#000000" transform="translate(0,0)"/>
</svg>
